<svg width="80" height="80" viewBox="0 0 80 80" xmlns="http://www.w3.org/2000/svg">
  <!-- 背景円 -->
  <circle cx="40" cy="40" r="38" fill="#757fb5" stroke="#343a40" stroke-width="2"/>
  
  <!-- ガレージドア風の背景 -->
  <rect x="12" y="25" width="56" height="35" fill="#495057" rx="2"/>
  
  <!-- ガレージドアの横線 -->
  <line x1="12" y1="32" x2="68" y2="32" stroke="#343a40" stroke-width="1"/>
  <line x1="12" y1="39" x2="68" y2="39" stroke="#343a40" stroke-width="1"/>
  <line x1="12" y1="46" x2="68" y2="46" stroke="#343a40" stroke-width="1"/>
  <line x1="12" y1="53" x2="68" y2="53" stroke="#343a40" stroke-width="1"/>
  
  <!-- ガレージドアハンドル -->
  <rect x="60" y="40" width="6" height="8" fill="#343a40" rx="1"/>
  
  <!-- メインの歯車 -->
  <g transform="translate(25, 15)">
    <!-- 歯車の歯 -->
    <polygon points="15,2 17,2 18,4 18,6 17,8 15,8 14,6 14,4" fill="#ffffff"/>
    <polygon points="28,15 28,17 26,18 24,18 22,17 22,15 24,14 26,14" fill="#ffffff"/>
    <polygon points="15,28 17,28 18,26 18,24 17,22 15,22 14,24 14,26" fill="#ffffff"/>
    <polygon points="2,15 2,17 4,18 6,18 8,17 8,15 6,14 4,14" fill="#ffffff"/>
    <polygon points="24,4 26,6 25,8 23,9 21,8 20,6 22,4 24,4" fill="#ffffff"/>
    <polygon points="6,4 8,6 7,8 5,9 3,8 2,6 4,4 6,4" fill="#ffffff"/>
    <polygon points="6,26 8,24 9,26 8,28 6,29 4,28 3,26 5,24" fill="#ffffff"/>
    <polygon points="24,26 26,24 27,26 26,28 24,29 22,28 21,26 23,24" fill="#ffffff"/>
    
    <!-- 歯車の本体 -->
    <circle cx="15" cy="15" r="8" fill="#ffffff"/>
    <!-- 歯車の中心穴 -->
    <circle cx="15" cy="15" r="3" fill="#757fb5"/>
  </g>
  
  <!-- レンチ -->
  <g transform="translate(45, 35) rotate(30)">
    <rect x="0" y="-1" width="18" height="2" fill="#ffffff" rx="1"/>
    <polygon points="18,-3 22,0 18,3 18,1 20,1 20,-1 18,-1" fill="#ffffff"/>
    <circle cx="2" cy="0" r="3" fill="none" stroke="#ffffff" stroke-width="1.5"/>
  </g>
  
  <!-- 小さな装飾歯車 -->
  <g transform="translate(52, 20)">
    <polygon points="5,0 6,0 6.5,1 6.5,2 6,3 5,3 4.5,2 4.5,1" fill="#ffffff" opacity="0.8"/>
    <polygon points="10,5 10,6 9,6.5 8,6.5 7,6 7,5 8,4.5 9,4.5" fill="#ffffff" opacity="0.8"/>
    <polygon points="5,10 6,10 6.5,9 6.5,8 6,7 5,7 4.5,8 4.5,9" fill="#ffffff" opacity="0.8"/>
    <polygon points="0,5 0,6 1,6.5 2,6.5 3,6 3,5 2,4.5 1,4.5" fill="#ffffff" opacity="0.8"/>
    <circle cx="5" cy="5" r="3" fill="#ffffff" opacity="0.8"/>
    <circle cx="5" cy="5" r="1.5" fill="#757fb5"/>
  </g>
</svg>